<svg width="66" height="61" viewBox="0 0 66 61" fill="none" xmlns="http://www.w3.org/2000/svg">
<path d="M58 0.5H8C6.01088 0.5 4.10322 1.29018 2.6967 2.6967C1.29018 4.10322 0.5 6.01088 0.5 8V43C0.5 44.9891 1.29018 46.8968 2.6967 48.3033C4.10322 49.7098 6.01088 50.5 8 50.5H58C59.9891 50.5 61.8968 49.7098 63.3033 48.3033C64.7098 46.8968 65.5 44.9891 65.5 43V8C65.5 6.01088 64.7098 4.10322 63.3033 2.6967C61.8968 1.29018 59.9891 0.5 58 0.5ZM60.5 43C60.5 43.663 60.2366 44.2989 59.7678 44.7678C59.2989 45.2366 58.663 45.5 58 45.5H8C7.33696 45.5 6.70107 45.2366 6.23223 44.7678C5.76339 44.2989 5.5 43.663 5.5 43V8C5.5 7.33696 5.76339 6.70107 6.23223 6.23223C6.70107 5.76339 7.33696 5.5 8 5.5H58C58.663 5.5 59.2989 5.76339 59.7678 6.23223C60.2366 6.70107 60.5 7.33696 60.5 8V43ZM45.5 58C45.5 58.663 45.2366 59.2989 44.7678 59.7678C44.2989 60.2366 43.663 60.5 43 60.5H23C22.337 60.5 21.7011 60.2366 21.2322 59.7678C20.7634 59.2989 20.5 58.663 20.5 58C20.5 57.337 20.7634 56.7011 21.2322 56.2322C21.7011 55.7634 22.337 55.5 23 55.5H43C43.663 55.5 44.2989 55.7634 44.7678 56.2322C45.2366 56.7011 45.5 57.337 45.5 58Z" fill="black"/>
</svg>
