<svg width="512" height="512" viewBox="0 0 512 512" fill="none" xmlns="http://www.w3.org/2000/svg">
<g clip-path="url(#clip0_308_2986)">
<path d="M392.346 390.231C392.346 395.244 389.453 400.58 382.931 405.965C376.434 411.33 366.792 416.335 354.524 420.612C330.026 429.155 295.925 434.5 258.077 434.5C220.233 434.5 186.132 429.108 161.633 420.541C149.365 416.252 139.72 411.24 133.22 405.882C126.692 400.5 123.808 395.188 123.808 390.231C123.808 385.218 126.701 379.881 133.223 374.496C139.72 369.132 149.362 364.127 161.63 359.849C186.127 351.307 220.229 345.962 258.077 345.962C295.925 345.962 330.026 351.307 354.524 359.849C366.792 364.127 376.434 369.132 382.931 374.496C389.453 379.881 392.346 385.218 392.346 390.231Z" stroke="#9B9B9B" stroke-width="8"/>
<path fill-rule="evenodd" clip-rule="evenodd" d="M502.308 188.115L501.923 189.846C461.154 181.769 419.423 181.769 393.654 182.731C392.692 185.808 391.731 188.692 390.577 191.577C415.385 192.346 459.038 195.423 500.769 207.154L500.192 208.885C458.269 196.962 414.231 193.885 389.808 193.308C377.5 221.385 350.769 239.269 295 244.846C304.615 251.192 314.423 263.5 314.423 286.769V346.385C314.423 346.385 315.769 361 329.231 366C329.231 366 337.308 371.577 328.654 374.654C328.654 374.654 291.154 377.731 291.154 346.962V301.577C291.154 301.577 292.692 284.846 283.846 277.923V351.962C283.846 351.962 284.423 369.846 293.654 376.577C293.654 376.577 299.808 387.731 286.346 384.654C286.346 384.654 260.577 380.808 259.423 350.808L258.846 275.231H252.692L252.115 350.808C250.962 381 225.192 384.654 225.192 384.654C211.731 387.538 217.885 376.577 217.885 376.577C227.115 369.846 227.692 351.962 227.692 351.962V277.346C218.846 283.5 220.385 301.577 220.385 301.577V346.962C220.385 377.731 182.885 374.654 182.885 374.654C174.231 371.577 182.308 366 182.308 366C195.962 361.192 197.115 346.385 197.115 346.385V305.038C139.231 318.115 127.115 277.731 127.115 277.731C117.885 254.077 104.615 247.731 104.615 247.731C85.9615 234.846 105.962 235.231 105.962 235.231C126.538 236.769 137.308 256.385 137.308 256.385C156.538 289.462 188.462 277.538 198.654 272.731C201.731 258.308 209.231 249.846 216.731 244.846C164.423 239.269 135.192 221.192 120.192 193.5C95.3846 194.269 52.5 197.346 11.3462 208.885L10.7692 207.154C51.5385 195.615 94.0385 192.346 119.038 191.577C117.692 188.692 116.346 185.615 115.192 182.538C90 181.577 49.6154 181.769 10.3846 189.654L10 187.923C49.2308 180.038 89.2308 179.654 114.615 180.615C109.231 165.808 107.115 148.692 107.115 129.654C107.115 104.462 116.154 83.8846 131.154 67.7308C128.846 61.9616 120.962 38.3077 133.654 6.57694C133.654 6.57694 153.077 0.423092 197.308 30.6154C215.962 25.6154 235.769 23.1154 255.385 23.1154C273.269 23.1154 291.154 25.2308 307.885 29.4616C350.769 0.807707 369.615 6.76925 369.615 6.76925C380.192 33.5 376.346 54.4616 373.462 63.8846C390 80.4231 400.385 102.346 400.385 129.846C400.385 148.885 399.038 166.192 395 181C420.192 179.846 461.731 180.038 502.308 188.115ZM96.1538 261.962L100.192 248.115L104.038 261.769C104.423 263.115 104.808 267.731 99.8077 267.923C95.1923 266.962 96.1538 261.962 96.1538 261.962ZM345.769 128.5C357.692 139.462 364.808 152.538 364.808 166.577C364.808 232.731 315.577 234.462 254.808 234.462C194.038 234.462 144.808 225.231 144.808 166.577C144.808 152.538 151.731 139.462 163.654 128.692C178.095 115.513 199.795 117.053 225.175 118.855C234.606 119.525 244.544 120.231 254.808 120.231C265.184 120.231 275.215 119.495 284.717 118.798C309.907 116.95 331.387 115.374 345.769 128.5ZM195.769 192.346C204.038 192.346 210.962 182.538 210.962 170.423C210.962 158.308 204.038 148.5 195.769 148.5C187.5 148.5 180.577 158.308 180.577 170.423C180.577 182.538 187.308 192.346 195.769 192.346ZM333.654 170.423C333.654 182.538 326.731 192.346 318.462 192.346C310 192.346 303.269 182.538 303.269 170.423C303.269 158.308 310.192 148.5 318.462 148.5C326.923 148.5 333.654 158.308 333.654 170.423ZM255.192 205.038C258.462 205.038 260.962 202.346 260.962 199.269C260.962 196 258.269 193.5 255.192 193.5C251.923 193.5 249.423 196 249.423 199.269C249.423 202.538 252.115 205.038 255.192 205.038ZM241.923 213.692C241.538 212.731 242.115 211.769 243.077 211.385C244.038 211 245 211.577 245.385 212.538C246.923 216.769 250.769 219.462 255.192 219.462C259.615 219.462 263.462 216.577 265 212.538C265.385 211.577 266.346 211 267.308 211.385C268.269 211.769 268.846 212.731 268.462 213.692C266.538 219.269 261.154 223.115 255.192 223.115C249.231 223.115 243.846 219.269 241.923 213.692ZM110.769 242.538C113.077 242.538 114.808 241.385 114.808 239.846C114.808 238.308 113.077 237.154 110.769 237.154C108.462 237.154 106.731 238.308 106.731 239.846C106.731 241.385 108.654 242.538 110.769 242.538ZM125.962 246C125.962 247.538 124.231 248.692 121.923 248.692C119.808 248.692 117.885 247.538 117.885 246C117.885 244.462 119.615 243.308 121.923 243.308C124.231 243.308 125.962 244.462 125.962 246ZM128.654 256.769C130.962 256.769 132.692 255.615 132.692 254.077C132.692 252.538 130.962 251.192 128.654 251.385C126.346 251.385 124.615 252.538 124.615 254.077C124.615 255.615 126.538 256.769 128.654 256.769ZM138.846 263.308C138.846 264.846 137.115 266 134.808 266C132.692 266 130.769 264.846 130.769 263.308C130.769 261.769 132.5 260.615 134.808 260.615C137.115 260.423 138.846 261.769 138.846 263.308ZM141.538 274.462C143.846 274.462 145.577 273.308 145.577 271.769C145.577 270.231 143.846 269.077 141.538 269.077C139.231 269.077 137.5 270.231 137.5 271.769C137.5 273.308 139.423 274.462 141.538 274.462ZM154.808 279.269C154.808 280.808 153.077 281.962 150.769 281.962C148.654 281.962 146.731 280.808 146.731 279.269C146.731 277.731 148.462 276.577 150.769 276.577C153.077 276.385 154.808 277.731 154.808 279.269ZM163.654 286.769C165.962 286.769 167.692 285.615 167.692 284.077C167.692 282.538 165.962 281.385 163.654 281.385C161.346 281.385 159.615 282.538 159.615 284.077C159.615 285.615 161.538 286.769 163.654 286.769ZM180.577 284.077C180.577 285.615 178.846 286.769 176.538 286.769C174.423 286.769 172.5 285.615 172.5 284.077C172.5 282.538 174.231 281.385 176.538 281.385C178.846 281.385 180.577 282.538 180.577 284.077ZM189.615 284.654C191.923 284.654 193.654 283.5 193.654 281.962C193.654 280.423 191.731 279.269 189.615 279.269C187.308 279.269 185.577 280.423 185.577 281.962C185.577 283.5 187.5 284.654 189.615 284.654Z" fill="#9B9B9B"/>
</g>
<defs>
<clipPath id="clip0_308_2986">
<rect width="493" height="433" fill="white" transform="translate(10 6)"/>
</clipPath>
</defs>
</svg>
