<svg width="80" height="80" viewBox="0 0 80 80" fill="none" xmlns="http://www.w3.org/2000/svg">
<path d="M65 12.5H15C13.0109 12.5 11.1032 13.2902 9.6967 14.6967C8.29018 16.1032 7.5 18.0109 7.5 20V55C7.5 56.9891 8.29018 58.8968 9.6967 60.3033C11.1032 61.7098 13.0109 62.5 15 62.5H65C66.9891 62.5 68.8968 61.7098 70.3033 60.3033C71.7098 58.8968 72.5 56.9891 72.5 55V20C72.5 18.0109 71.7098 16.1032 70.3033 14.6967C68.8968 13.2902 66.9891 12.5 65 12.5ZM67.5 55C67.5 55.663 67.2366 56.2989 66.7678 56.7678C66.2989 57.2366 65.663 57.5 65 57.5H15C14.337 57.5 13.7011 57.2366 13.2322 56.7678C12.7634 56.2989 12.5 55.663 12.5 55V20C12.5 19.337 12.7634 18.7011 13.2322 18.2322C13.7011 17.7634 14.337 17.5 15 17.5H65C65.663 17.5 66.2989 17.7634 66.7678 18.2322C67.2366 18.7011 67.5 19.337 67.5 20V55ZM52.5 70C52.5 70.663 52.2366 71.2989 51.7678 71.7678C51.2989 72.2366 50.663 72.5 50 72.5H30C29.337 72.5 28.7011 72.2366 28.2322 71.7678C27.7634 71.2989 27.5 70.663 27.5 70C27.5 69.337 27.7634 68.7011 28.2322 68.2322C28.7011 67.7634 29.337 67.5 30 67.5H50C50.663 67.5 51.2989 67.7634 51.7678 68.2322C52.2366 68.7011 52.5 69.337 52.5 70Z" fill="black"/>
<path d="M37.835 44.1553C37.835 45.4932 37.5225 46.6211 36.8975 47.5391C36.2725 48.4473 35.4131 49.1357 34.3193 49.6045C33.2354 50.0635 32.0049 50.293 30.6279 50.293C29.251 50.293 28.0156 50.0635 26.9219 49.6045C25.8281 49.1357 24.9639 48.4473 24.3291 47.5391C23.6943 46.6211 23.377 45.4932 23.377 44.1553C23.377 43.2568 23.5576 42.4463 23.9189 41.7236C24.2803 40.9912 24.7832 40.3662 25.4277 39.8486C26.082 39.3213 26.8486 38.9209 27.7275 38.6475C28.6064 38.3643 29.5635 38.2227 30.5986 38.2227C31.9854 38.2227 33.2256 38.4668 34.3193 38.9551C35.4131 39.4434 36.2725 40.1318 36.8975 41.0205C37.5225 41.9092 37.835 42.9541 37.835 44.1553ZM33.5869 43.877C33.5869 43.2227 33.46 42.6611 33.2061 42.1924C32.9619 41.7139 32.6152 41.3477 32.166 41.0938C31.7168 40.8398 31.1943 40.7129 30.5986 40.7129C30.0029 40.7129 29.4805 40.8398 29.0312 41.0938C28.582 41.3477 28.2305 41.7139 27.9766 42.1924C27.7324 42.6611 27.6104 43.2227 27.6104 43.877C27.6104 44.5215 27.7324 45.0781 27.9766 45.5469C28.2305 46.0156 28.582 46.377 29.0312 46.6309C29.4902 46.875 30.0225 46.9971 30.6279 46.9971C31.2334 46.9971 31.7559 46.875 32.1953 46.6309C32.6445 46.377 32.9863 46.0156 33.2207 45.5469C33.4648 45.0781 33.5869 44.5215 33.5869 43.877ZM37.3809 34.3262C37.3809 35.4102 37.0928 36.3721 36.5166 37.2119C35.9404 38.042 35.1396 38.6914 34.1143 39.1602C33.0986 39.6289 31.9365 39.8633 30.6279 39.8633C29.3096 39.8633 28.1377 39.6289 27.1123 39.1602C26.0869 38.6914 25.2861 38.042 24.71 37.2119C24.1338 36.3721 23.8457 35.4102 23.8457 34.3262C23.8457 33.0371 24.1338 31.9531 24.71 31.0742C25.2959 30.1855 26.0967 29.5117 27.1123 29.0527C28.1377 28.5938 29.2998 28.3643 30.5986 28.3643C31.917 28.3643 33.084 28.5938 34.0996 29.0527C35.125 29.5117 35.9258 30.1855 36.502 31.0742C37.0879 31.9531 37.3809 33.0371 37.3809 34.3262ZM33.1621 34.5166C33.1621 33.9404 33.0596 33.4424 32.8545 33.0225C32.6494 32.5928 32.3564 32.2607 31.9756 32.0264C31.6045 31.792 31.1455 31.6748 30.5986 31.6748C30.0713 31.6748 29.6172 31.7871 29.2363 32.0117C28.8652 32.2363 28.5771 32.5635 28.3721 32.9932C28.1768 33.4131 28.0791 33.9209 28.0791 34.5166C28.0791 35.0928 28.1768 35.6006 28.3721 36.04C28.5771 36.4697 28.8701 36.8066 29.251 37.0508C29.6318 37.2949 30.0908 37.417 30.6279 37.417C31.165 37.417 31.6191 37.2949 31.9902 37.0508C32.3711 36.8066 32.6592 36.4697 32.8545 36.04C33.0596 35.6006 33.1621 35.0928 33.1621 34.5166ZM55.2812 46.7041V50H40.6914V47.1875L47.5908 39.79C48.2842 39.0186 48.8311 38.3398 49.2314 37.7539C49.6318 37.1582 49.9199 36.626 50.0957 36.1572C50.2812 35.6787 50.374 35.2246 50.374 34.7949C50.374 34.1504 50.2666 33.5986 50.0518 33.1396C49.8369 32.6709 49.5195 32.3096 49.0996 32.0557C48.6895 31.8018 48.1816 31.6748 47.5762 31.6748C46.9316 31.6748 46.375 31.8311 45.9062 32.1436C45.4473 32.4561 45.0957 32.8906 44.8516 33.4473C44.6172 34.0039 44.5 34.6338 44.5 35.3369H40.2666C40.2666 34.0674 40.5693 32.9053 41.1748 31.8506C41.7803 30.7861 42.6348 29.9414 43.7383 29.3164C44.8418 28.6816 46.1504 28.3643 47.6641 28.3643C49.1582 28.3643 50.418 28.6084 51.4434 29.0967C52.4785 29.5752 53.2598 30.2686 53.7871 31.1768C54.3242 32.0752 54.5928 33.1494 54.5928 34.3994C54.5928 35.1025 54.4805 35.791 54.2559 36.4648C54.0312 37.1289 53.709 37.793 53.2891 38.457C52.8789 39.1113 52.3809 39.7754 51.7949 40.4492C51.209 41.123 50.5596 41.8213 49.8467 42.5439L46.1406 46.7041H55.2812Z" fill="black"/>
</svg>
